# xmcd
#
# Track frame offsets: 
#        150
#        14392
#        29697
#        43110
#        59097
#        73995
#        87537
#        99677
#        115245
#        127477
#        140635
#        153137
#        168805
#        182682
#        192200
#        206947
#        221610
#
# Disc length: 3124 seconds
#
# Revision: 1
# Processed by: cddbd v1.5.2PL0 Copyright (c) Steve Scherf et al.
# Submitted via: ExactAudioCopy v1.1
#
DISCID=0f0c3211
DTITLE=陈松龄 - 天涯歌女(90年天龙虚字1A1首版)[追梦者原创]
DYEAR=1990
DGENRE=Pop/Funk
TTITLE0=夜上海
TTITLE1=扁舟情侣 - 温兆伦 陈松伶 (电视剧"天涯歌女"插曲)
TTITLE2=疯狂世界
TTITLE3=野玫瑰
TTITLE4=永远的微笑
TTITLE5=龙华的桃花
TTITLE6=天涯歌女
TTITLE7=月圆花好
TTITLE8=岁月留声 (无线电视剧"天涯歌女"主题曲)
TTITLE9=特别快车 - 温兆伦 陈松伶 (电视剧"天涯歌女"插曲)
TTITLE10=小小洞房
TTITLE11=民族之光
TTITLE12=街头月
TTITLE13=四季歌
TTITLE14=何日君再来
TTITLE15=歌女泪
TTITLE16=送君
EXTD=
EXTT0=
EXTT1=
EXTT2=
EXTT3=
EXTT4=
EXTT5=
EXTT6=
EXTT7=
EXTT8=
EXTT9=
EXTT10=
EXTT11=
EXTT12=
EXTT13=
EXTT14=
EXTT15=
EXTT16=
PLAYORDER=
